<svg font-family="-apple-system-body, ui-sans-serif, -apple-system, system-ui, &quot;Segoe UI&quot;, Helvetica, &quot;Apple Color Emoji&quot;, Arial, sans-serif, &quot;Segoe UI Emoji&quot;, &quot;Segoe UI Symbol&quot;" font-weight="400" data-d-component="svg" fill="currentColor" style="color:rgb(255, 255, 255)" viewBox="0 0 760 180" xmlns="http://www.w3.org/2000/svg"><rect width="760" height="180" rx="14" fill="#F8FAFC"/><rect x="20" y="18" width="52" height="22" rx="6" fill="#DBEAFE" stroke="#2563EB"/><text x="46" y="33" font-size="8" font-family="Arial" font-weight="700" text-anchor="middle" fill="#1D4ED8">Q1</text><rect x="110" y="18" width="52" height="22" rx="6" fill="#DBEAFE" stroke="#2563EB"/><text x="136" y="33" font-size="8" font-family="Arial" font-weight="700" text-anchor="middle" fill="#1D4ED8">Q2</text><rect x="200" y="18" width="52" height="22" rx="6" fill="#DBEAFE" stroke="#2563EB"/><text x="226" y="33" font-size="8" font-family="Arial" font-weight="700" text-anchor="middle" fill="#1D4ED8">Q3</text><rect x="290" y="18" width="52" height="22" rx="6" fill="#DBEAFE" stroke="#2563EB"/><text x="316" y="33" font-size="8" font-family="Arial" font-weight="700" text-anchor="middle" fill="#1D4ED8">Q4</text><rect x="380" y="18" width="52" height="22" rx="6" fill="#DBEAFE" stroke="#2563EB"/><text x="406" y="33" font-size="8" font-family="Arial" font-weight="700" text-anchor="middle" fill="#1D4ED8">Q5</text><rect x="470" y="18" width="52" height="22" rx="6" fill="#DBEAFE" stroke="#2563EB"/><text x="496" y="33" font-size="8" font-family="Arial" font-weight="700" text-anchor="middle" fill="#1D4ED8">Q6</text><rect x="560" y="18" width="52" height="22" rx="6" fill="#DBEAFE" stroke="#2563EB"/><text x="586" y="33" font-size="8" font-family="Arial" font-weight="700" text-anchor="middle" fill="#1D4ED8">Q7</text><rect x="650" y="18" width="52" height="22" rx="6" fill="#DBEAFE" stroke="#2563EB"/><text x="676" y="33" font-size="8" font-family="Arial" font-weight="700" text-anchor="middle" fill="#1D4ED8">Q8</text><line x1="200" y1="40" x2="200" y2="60" stroke="#64748B"/><line x1="560" y1="40" x2="560" y2="60" stroke="#64748B"/><rect x="120" y="60" width="160" height="38" rx="10" fill="#D1FAE5" stroke="#059669"/><text x="200" y="77" font-size="10" font-family="Arial" font-weight="700" text-anchor="middle" fill="#047857">KV Group A</text><text x="200" y="89" font-size="8" font-family="Arial" text-anchor="middle" fill="#166534">Shared by Q1–Q4</text><rect x="480" y="60" width="160" height="38" rx="10" fill="#FCE7F3" stroke="#DB2777"/><text x="560" y="77" font-size="10" font-family="Arial" font-weight="700" text-anchor="middle" fill="#BE185D">KV Group B</text><text x="560" y="89" font-size="8" font-family="Arial" text-anchor="middle" fill="#9D174D">Shared by Q5–Q8</text><text x="380" y="128" font-size="10" font-family="Arial" font-weight="700" text-anchor="middle" fill="#374151">Groups preserve head diversity while reducing KV memory</text></svg>